<svg width="685" height="685" viewBox="0 0 685 685" fill="none" xmlns="http://www.w3.org/2000/svg">
<g opacity="0.59">
<path opacity="0.5" d="M683.09 340.49V340.5C683.47 407.91 663.83 473.92 626.66 530.15C589.49 586.38 536.46 630.32 474.29 656.38C412.12 682.44 343.61 689.46 277.45 676.54C211.29 663.62 150.45 631.36 102.65 583.82C54.8499 536.29 22.23 475.64 8.93996 409.55C-4.35004 343.46 2.27995 274.92 27.9799 212.6C53.6899 150.28 97.32 97 153.34 59.51C209.36 22.02 275.25 1.99997 342.67 1.99997H342.68C432.7 1.74997 519.14 37.27 582.97 100.75C646.81 164.23 682.82 250.46 683.09 340.49Z" stroke="white" stroke-width="3"/>
<g opacity="0.5">
<path d="M157.44 533.84C60.7098 446.98 14.6999 330.37 29.4099 233.73C-15.9001 342.51 18.4599 481.96 122.85 575.79C232.41 674.16 383.37 690.44 487.45 623.53C391.11 658.11 260.42 626.42 157.44 533.84Z" fill="white"/>
</g>
<path opacity="0.5" d="M492.14 36.73C492.14 36.73 578.51 114.21 509.25 176.23C460.91 219.4 333.54 214.7 333.54 214.7C333.54 214.7 100.29 198.98 7.39987 295.54L5.61987 310.41C5.61987 310.41 52.5298 226.93 367.41 236.94C367.41 236.94 565.36 239.17 551.2 122.83C547.39 91.54 532.08 69.92 512.75 47.74C502.05 41.52 492.14 36.73 492.14 36.73Z" fill="white"/>
<path opacity="0.5" d="M634.5 168.18C634.5 168.18 538.74 312.01 287.76 454.03C149.21 528.81 91.7899 532.69 69.1199 535.02C66.3599 535.3 59.9399 535.83 59.9399 535.83L70.6599 550.56C70.6599 550.56 170.27 544.98 305.8 466.8C444.6 378.65 571.92 284.98 640.74 179.27L634.5 168.18Z" fill="white"/>
<path opacity="0.5" d="M682.4 319.43C682.4 319.43 658.18 297.15 635.17 312.19C581.38 347.33 551.34 405.93 500.3 514.89C431.55 640.81 363.28 673.8 330.97 682.85H355.68C355.68 682.85 438.25 677.22 519.6 518.29C519.6 518.29 554.35 436.2 600.46 373.78C635.16 333.39 644.79 306.07 683.08 338.39L682.81 327.76L682.4 319.43Z" fill="white"/>
<path opacity="0.5" d="M168.07 49.65C168.07 49.65 360.99 -25.27 560.15 254.64C560.15 254.64 627.5 317.26 627.5 528.06L639.75 506.06C639.75 506.06 659.88 323.84 530.66 189.78C436.8 66.62 311.83 9.50999 195.29 33.93L181.32 41.66L168.07 49.65Z" fill="white"/>
</g>
</svg>
